<?xml version="1.0" encoding="utf-8"?>
<!-- Generator: Adobe Illustrator 22.1.0, SVG Export Plug-In . SVG Version: 6.00 Build 0)  -->
<svg version="1.1" id="Capa_1" xmlns="http://www.w3.org/2000/svg" xmlns:xlink="http://www.w3.org/1999/xlink" x="0px" y="0px"
	 width="132px" height="54px" viewBox="0 0 132 54" style="enable-background:new 0 0 132 54;" xml:space="preserve">
<style type="text/css">
	.st0{fill:#FFFFFF;}
</style>
<g>
	<path class="st0" d="M70.5,31.6c-0.6-0.2-1.1-0.5-1.3-0.9v0.8C69.5,31.4,70,31.5,70.5,31.6"/>
	<path class="st0" d="M70.2,33.4c-0.4-0.1-0.8-0.2-1.2-0.3v0.4C69.3,33.4,69.7,33.4,70.2,33.4L70.2,33.4z"/>
	<path class="st0" d="M71.4,21.5L69.9,9.7c-0.5-4-2.9-5.3-6.1-4.9C61,5.1,59.1,7.1,58.7,9h-0.1c-0.9-2.3-3-3.2-5.6-2.9
		c-2.7,0.3-4.5,2.2-5,4h-0.1l-0.4-2.9l-2.7,0.4l1.8,13.8c0.2,0.1,0.4,0.2,0.6,0.2c0.9,0.3,1.7,0.5,2.5,0.6L48.6,14
		c-0.3-2.7,0.8-4.9,4-5.3c1.1-0.1,2.1,0.1,2.8,0.8c0.7,0.8,0.9,2.1,1,3.3l1,7.8c0.1-0.2,0.3-0.4,0.4-0.5c0.6-0.7,1-1.3,1.7-1.1
		c0.6,0.2,0.5,0.9,0.4,1.5c-0.1,0.3-0.2,0.9,0,1c0.1,0,0.3-0.1,0.5-0.2l-1.1-8.5c-0.4-2.8,0.8-5,4-5.4c1.1-0.1,2.1,0,2.8,0.8
		c0.7,0.8,0.9,2.1,1,3.3L68.5,22L71.4,21.5z"/>
	<path class="st0" d="M77.8,21.5c2.5,0.1,4.6-1.1,5.6-3.1h0.1c0.2,2.1,1.1,3.1,3.9,3.1h0.4l0.1-2.4c-1.3-0.1-1.6-0.6-1.5-2l0.2-7
		c0.1-4.6-1.9-6.4-6.2-6.5c-4.1-0.1-6.5,1.9-6.6,5l2.8,0.1c0.1-1.5,1.1-2.9,3.6-2.9c2.4,0.1,3.6,1.3,3.5,4.4v0.7
		c-3.8,0-6.5,0.3-8.3,1.2c-1.8,0.8-2.6,2.4-2.7,4.3C72.4,19.6,74.4,21.5,77.8,21.5 M75.4,16.4c0-0.9,0.3-1.6,1-2.1
		c1.1-0.8,3.3-1,7-1.1v0.4c-0.1,4.2-2.8,5.6-5,5.6C76.5,19.1,75.4,18.2,75.4,16.4"/>
	<path class="st0" d="M52.7,35.1L52.7,35.1c-0.4-1.7-1.8-3.4-4.3-3.9c-4.3-0.8-7.9,1.8-9,7.6c-1.3,6.5,1.6,9.4,5.2,10.1
		c2.6,0.5,4.7-0.7,5.9-2.2h0.1l-0.5,2.8l2.8,0.5l3.9-20.2c-1,0.2-2,0.2-3,0.3L52.7,35.1z M51.8,40.3l-0.3,1.8
		c-0.6,3.1-2.9,5.1-5.9,4.5c-3.4-0.7-3.9-3.7-3.2-7.5c0.8-4,2.7-6.2,6-5.6C51,34.1,52.4,36.7,51.8,40.3"/>
	<path class="st0" d="M66.3,30c-2.5,0.2-4.5,2.2-5.1,4.1h-0.1l-0.3-3.2L58,31.2l1.7,17.1l2.9-0.3l-0.9-9.3c-0.3-3.3,1.5-5.3,4.6-5.6
		l0.6-0.1l-0.3-3C66.6,30,66.3,30,66.3,30z"/>
	
		<rect x="69.5" y="23.3" transform="matrix(5.606019e-02 -0.9984 0.9984 5.606019e-02 42.2338 94.4298)" class="st0" width="3.2" height="3.1"/>
	<path class="st0" d="M69.6,36.2c0-0.2,0-0.4,0.1-0.5c0.3-0.3,0.9-0.4,2-0.3c0.1,0,0.2,0,0.3,0c-0.2,0-0.5,0-0.7-0.1
		c-0.9-0.1-1.8-0.1-2.3-0.5l-0.7,12.5l3,0.2l0.6-10.3C70,37,69.6,36.5,69.6,36.2"/>
	<path class="st0" d="M85.2,22.2l-2.9,0.6l1.1,5.5c1.1-0.3,2-0.7,2.8-1.2L85.2,22.2z"/>
	<path class="st0" d="M85.5,38.9l0.4,1.8c0.6,3.1-0.8,5.8-3.7,6.4c-3.4,0.7-5-1.9-5.8-5.7c-0.3-1.4-0.3-2.7-0.1-3.8
		c-0.1,0-0.2,0-0.4,0c-0.8,0-1.7,0-2.5-0.1c-0.2,1.3-0.2,2.9,0.1,4.6c1.3,6.5,5,8.1,8.6,7.4c2.6-0.5,4.1-2.4,4.7-4.2h0.1l0.5,2.8
		l2.8-0.5l-2.4-12c-1,0.4-2,0.7-3.1,1C85,37,85.3,37.9,85.5,38.9"/>
	<path d="M59.9,20.4c0.1-0.6,0.2-1.3-0.4-1.5c-0.7-0.2-1.2,0.4-1.7,1.1c-0.1,0.2-0.3,0.3-0.4,0.5c-0.4,0.5-1,1.1-1.7,1.4
		c-0.9,0.5-3.1,0.9-6.1,0.3c-0.8-0.1-1.6-0.4-2.5-0.6c-0.2-0.1-0.4-0.1-0.6-0.2c-1.5-0.6-2.6-1.6-3.2-3c-1.5-3.2,0.2-7.4,0.2-7.5
		c0.1-0.2,0-0.3-0.2-0.4c-0.2-0.1-0.3,0-0.4,0.2l0,0c-0.1,0.4-1.7,4.6-0.2,7.9c0.8,1.7,2.2,2.8,4.2,3.5c4.5,1.5,7.8,0.9,9,0.3
		c1.1-0.5,1.7-1.4,2.3-2.1c0.4-0.5,0.8-1,1-0.9l0,0c0.1,0.1,0,0.6,0,0.8c-0.1,0.6-0.2,1.4,0.4,1.7c0.5,0.2,1.3-0.3,2.6-1.2
		c0.6-0.4,1.5-1,1.7-1c0.1,0,0.1,0,0.1,0s0,0,0,0.1c-0.1,0.2-0.9,0.8-1.4,1.2c-0.7,0.6-0.8,0.7-0.9,0.8c0,0,0,0,0,0.1s0,0.2,0,0.3
		l0,0c0,0.1,0.1,0.2,0.2,0.2c0.2,0.1,0.4,0,1.5-0.5c0.6-0.3,1.6-0.8,1.9-0.7c0,0,0.1,0,0.1,0.1c0,0,0,0,0,0.1
		c-0.1,0.2-1.3,0.9-1.9,1.2c-1.1,0.6-1.3,0.7-1.4,0.9v0.1c0,0.1,0.1,0.3,0.3,0.3c0.3,0.1,0.9-0.1,1.7-0.4c0.5-0.2,1.2-0.4,1.4-0.4
		c0,0,0.1,0,0.1,0.1v0.1c-0.1,0.2-1.2,0.7-1.9,1c-1.2,0.5-1.5,0.7-1.6,0.9c0,0.1,0,0.3,0,0.4s0.1,0.2,0.3,0.3c0.2,0.1,0.6,0,1.5-0.3
		c0.4-0.1,1.1-0.4,1.3-0.4l0,0c0,0,0,0,0,0.1c-0.2,0.4-3,2-5.9,3.1c-1.7,0.6-4.1,0.9-6.6,0.9c-2.7,0-5.4-0.4-7.8-1.2
		c-4-1.3-6.9-3.6-8.5-6.8C33.6,15.7,35.9,8.8,36,8.7l0,0c0-0.2,0-0.3-0.2-0.4c-0.2-0.1-0.3,0-0.4,0.2c0,0.1-2.4,7.3,0.6,13.3
		c1.7,3.3,4.6,5.7,8.8,7.1c2.4,0.8,5.2,1.2,7.9,1.2c0.3,0,0.6,0,0.9,0c1.1,0,2.1-0.1,3-0.3c1.1-0.2,2-0.4,2.8-0.7
		c2.5-0.9,6-2.7,6.3-3.4c0-0.1,0.1-0.3,0-0.5c0-0.1-0.1-0.3-0.4-0.4s-0.7,0-1.6,0.3c0.1,0,0.1-0.1,0.2-0.1c1.3-0.5,2-0.9,2.2-1.4
		c0.1-0.2,0.1-0.4,0-0.6c-0.1-0.1-0.2-0.3-0.5-0.4s-0.8,0-1.4,0.2c1.1-0.6,1.6-1,1.8-1.3c0.1-0.2,0.1-0.4,0-0.6s-0.2-0.3-0.4-0.4
		c-0.4-0.1-1.1,0.2-2.2,0.7c0.9-0.8,1.2-1,1.3-1.3s0-0.5,0-0.6c-0.1-0.2-0.2-0.3-0.4-0.3c-0.4-0.1-1,0.2-2.3,1
		c-0.4,0.3-1.1,0.7-1.5,0.9c-0.2,0.1-0.4,0.2-0.5,0.2C59.8,21.3,59.8,20.7,59.9,20.4"/>
	<path d="M97.4,20.1c-0.4-2.3-1.1-3.9-1.1-3.9C96.2,16,96,16,95.9,16c-0.1,0.1-0.2,0.2-0.2,0.3c0,0,0,0,0,0.1c0,0,0.7,1.6,1.1,3.8
		c0.3,2,0.4,5.1-1.1,8c-2.1,4-6.6,6.7-13.3,8c-1.6,0.3-3.3,0.5-5,0.6c-1.2,0.1-3.1,0-4.7-0.1c-2.1-0.2-2.4-0.6-2.5-0.6
		c0.2-0.1,1-0.1,1.5-0.1c1,0,1.5,0,1.7-0.3c0.1-0.1,0.1-0.2,0.1-0.3c-0.1-0.5-0.9-0.6-2.1-0.7c-0.8-0.1-2-0.1-2.1-0.5c0,0,0,0,0-0.1
		c0.2-0.2,1.1-0.2,1.7-0.1c1,0,1.4,0,1.6-0.2c0.1-0.1,0.1-0.2,0.1-0.3l0,0c-0.1-0.3-0.3-0.3-1.6-0.6c-0.7-0.1-2.2-0.3-2.2-0.7v-0.1
		c0,0,0.1-0.1,0.2-0.1c0.4-0.1,1,0,1.6,0.1c1.1,0.2,1.6,0.2,1.8,0c0.1-0.1,0.1-0.2,0.1-0.4l0,0c-0.1-0.2-0.3-0.3-1-0.5
		C71,31,70,30.7,69.9,30.3c0-0.1,0-0.1,0-0.1s0,0,0.1,0c0.4-0.1,1,0.2,1.6,0.4c0.8,0.3,1.8,0.6,2.5,0.5c0.1,0,0.3-0.1,0.5-0.3
		c0.1-0.2,0.1-0.5,0.1-0.6c-0.1-0.3-0.2-0.6-0.4-0.9c-0.2-0.3-0.3-0.6-0.4-0.8c0-0.1,0-0.1,0-0.1l0.1-0.1c0.1,0,0.4,0.2,0.6,0.4
		c0.2,0.2,0.4,0.4,0.7,0.5c0.8,0.6,2.6,0.7,3.3,0.7c0.9,0,2.1-0.2,3.1-0.4c3.9-0.8,6.5-2.3,7.6-4.7c1.4-3-0.1-6.4-0.4-7
		c0-0.1,0-0.1,0-0.1c-0.1-0.1-0.3-0.2-0.4-0.1s-0.2,0.3-0.1,0.4c0,0,1.8,3.5,0.4,6.5c-0.5,1.1-1.3,2-2.5,2.7
		c-0.8,0.5-1.7,0.9-2.8,1.2c-0.6,0.2-1.2,0.3-1.9,0.5c-1,0.2-2.1,0.4-3,0.4c-0.7,0-2.3-0.1-3-0.6c-0.2-0.2-0.4-0.3-0.6-0.5
		c-0.4-0.3-0.7-0.6-1.1-0.5c-0.2,0-0.4,0.2-0.5,0.4c-0.1,0.2-0.1,0.4-0.1,0.6c0.1,0.4,0.3,0.7,0.5,1c0.1,0.2,0.3,0.5,0.3,0.7
		c0,0.1,0,0.2,0,0.2s0,0-0.1,0c-0.6,0.1-1.4-0.2-2.2-0.4c-0.7-0.3-1.4-0.5-1.9-0.4c-0.3,0-0.4,0.2-0.5,0.3c-0.1,0.1-0.2,0.3-0.1,0.6
		c0,0.1,0,0.1,0.1,0.2c0.2,0.4,0.7,0.7,1.3,0.9c-0.5-0.1-1-0.1-1.4-0.1c-0.1,0-0.2,0-0.3,0c-0.3,0-0.5,0.2-0.6,0.3
		c-0.1,0.1-0.2,0.3-0.1,0.6c0.1,0.4,0.4,0.6,0.9,0.8c0.3,0.1,0.7,0.2,1.2,0.3l0,0c-0.5,0-0.9,0-1.2,0.2C69.1,34,69,34,68.9,34.1
		c-0.1,0.2-0.2,0.4-0.1,0.6c0,0.2,0.2,0.4,0.4,0.5c0.5,0.3,1.4,0.4,2.3,0.5c0.2,0,0.4,0,0.7,0.1c-0.1,0-0.2,0-0.3,0
		c-1,0-1.7,0-2,0.3c-0.1,0.1-0.2,0.3-0.1,0.5c0.1,0.3,0.4,0.8,2.2,1c0.2,0,0.5,0.1,0.8,0.1c0.2,0,0.5,0.1,0.8,0.1
		c0.8,0.1,1.7,0.1,2.5,0.1c0.1,0,0.2,0,0.4,0c0.4,0,0.8,0,1.1,0c1.6-0.1,3.4-0.3,5-0.6c0.8-0.1,1.5-0.3,2.2-0.5
		c1.1-0.3,2.2-0.6,3.1-1c4.1-1.6,6.9-3.9,8.4-6.9C97.8,25.5,97.7,22.3,97.4,20.1"/>
</g>
</svg>
